<svg width="1439" height="248" viewBox="0 0 1439 248" fill="none" xmlns="http://www.w3.org/2000/svg">
<g clip-path="url(#clip0_1471_17404)">
<rect width="1439" height="248" fill="#1E1E1E"/>
<rect width="1439" height="248" fill="white"/>
<circle cx="290.456" cy="124.456" r="269.456" transform="rotate(180 290.456 124.456)" stroke="#F7F7F7" stroke-width="2"/>
<circle cx="290.458" cy="124.456" r="134.228" transform="rotate(180 290.458 124.456)" stroke="#F7F7F7" stroke-width="2"/>
<circle cx="290.455" cy="124.456" r="201.842" transform="rotate(180 290.455 124.456)" stroke="#F7F7F7" stroke-width="2"/>
<circle cx="290.456" cy="124.456" r="66.614" transform="rotate(180 290.456 124.456)" stroke="#F7F7F7" stroke-width="2"/>
<circle cx="1148.46" cy="124.456" r="269.456" transform="rotate(180 1148.46 124.456)" stroke="#F7F7F7" stroke-width="2"/>
<circle cx="1148.46" cy="124.456" r="134.228" transform="rotate(180 1148.46 124.456)" stroke="#F7F7F7" stroke-width="2"/>
<circle cx="1148.45" cy="124.456" r="201.842" transform="rotate(180 1148.45 124.456)" stroke="#F7F7F7" stroke-width="2"/>
<circle cx="1148.46" cy="124.456" r="66.614" transform="rotate(180 1148.46 124.456)" stroke="#F7F7F7" stroke-width="2"/>
<circle cx="1324.52" cy="197.518" r="10.6842" transform="rotate(-4.248 1324.52 197.518)" fill="#2DBA8D" stroke="#A1A6B2" stroke-width="2"/>
<circle cx="64.7962" cy="194.642" r="10.6842" transform="rotate(-6.224 64.7962 194.642)" fill="#3568DD" stroke="#F7F7F7" stroke-width="2"/>
<circle cx="1347.88" cy="140.882" r="10.6842" transform="rotate(-6.224 1347.88 140.882)" fill="#C2C5CC" stroke="#F7F7F7" stroke-width="2"/>
<circle cx="255.518" cy="202.518" r="10.6842" transform="rotate(-4.248 255.518 202.518)" fill="#3E73C4" stroke="#F7F7F7" stroke-width="2"/>
<circle cx="473.518" cy="227.518" r="10.6842" transform="rotate(-4.248 473.518 227.518)" fill="#3E73C4" stroke="#F7F7F7" stroke-width="2"/>
<circle cx="1135.52" cy="17.5177" r="10.6842" fill="#3E73C4" stroke="#F7F7F7" stroke-width="2"/>
<circle cx="981.518" cy="213.518" r="10.6842" transform="rotate(-4.248 981.518 213.518)" fill="#2DBA8D" stroke="#F7F7F7" stroke-width="2"/>
<circle cx="41.5176" cy="227.518" r="10.6842" transform="rotate(-4.248 41.5176 227.518)" fill="#2DBA8D" stroke="#F7F7F7" stroke-width="2"/>
<circle cx="275.952" cy="137.343" r="10.6842" transform="rotate(8.8532 275.952 137.343)" fill="#FFC93E" stroke="#F7F7F7" stroke-width="2"/>
<circle cx="1400.34" cy="216.343" r="10.6842" transform="rotate(8.8532 1400.34 216.343)" fill="#FFC93E" stroke="#F7F7F7" stroke-width="2"/>
<circle cx="447.344" cy="8.34328" r="10.6842" transform="rotate(8.8532 447.344 8.34328)" fill="#FFC93E" stroke="#F7F7F7" stroke-width="2"/>
<circle cx="1090.34" cy="144.343" r="10.6842" transform="rotate(8.8532 1090.34 144.343)" fill="#FF5E0D" stroke="#F7F7F7" stroke-width="2"/>
</g>
<defs>
<clipPath id="clip0_1471_17404">
<rect width="1439" height="248" fill="white"/>
</clipPath>
</defs>
</svg>
