<svg width="48" height="48" viewBox="0 0 48 48" fill="none" xmlns="http://www.w3.org/2000/svg">
<rect width="48" height="48" rx="24" fill="#0E0E0E" fill-opacity="0.05"/>
<path d="M28.8393 30.7223C28.702 30.8917 28.4849 31 28.25 31C28.0571 31.001 27.8704 30.9277 27.7232 30.7803L24.7193 27.772C24.4269 27.4791 24.4269 27.0043 24.7193 26.7114C25.0118 26.4185 25.486 26.4185 25.7784 26.7114L27.5 28.4441V17.75C27.5 17.3358 27.8364 17 28.25 17C28.6636 17 29 17.3358 29 17.75V28.4336L30.7216 26.7159C31.014 26.423 31.4882 26.423 31.7807 26.7159C32.0731 27.0088 32.0731 27.4837 31.7807 27.7765L28.8393 30.7223ZM20.3393 17.2778C20.202 17.1083 19.9849 17 19.75 17C19.5571 16.999 19.3704 17.0723 19.2232 17.2197L16.2193 20.228C15.9269 20.5209 15.9269 20.9957 16.2193 21.2886C16.5118 21.5815 16.986 21.5815 17.2784 21.2886L19 19.5559V30.25C19 30.6642 19.3364 31 19.75 31C20.1636 31 20.5 30.6642 20.5 30.25V19.5664L22.2216 21.2841C22.514 21.577 22.9882 21.577 23.2807 21.2841C23.5731 20.9912 23.5731 20.5164 23.2807 20.2235L20.3393 17.2778Z" fill="#0E0E0E"/>
</svg>
