<?xml version="1.0" standalone="no"?>
<!DOCTYPE svg PUBLIC "-//W3C//DTD SVG 20010904//EN"
 "http://www.w3.org/TR/2001/REC-SVG-20010904/DTD/svg10.dtd">
<svg version="1.0" xmlns="http://www.w3.org/2000/svg"
 width="1092.000000pt" height="1092.000000pt" viewBox="0 0 1092.000000 1092.000000"
 preserveAspectRatio="xMidYMid meet">
<metadata>
Created by potrace 1.16, written by Peter Selinger 2001-2019
</metadata>
<g transform="translate(0.000000,1092.000000) scale(0.100000,-0.100000)"
fill="#000000" stroke="none">
<path d="M3890 7065 c-385 -56 -696 -215 -960 -492 -247 -259 -388 -554 -435
-910 -40 -302 9 -612 139 -888 89 -188 196 -335 354 -487 575 -552 1477 -596
2107 -103 91 71 231 213 294 297 l42 56 -34 54 c-35 55 -69 116 -98 179 -16
36 -16 37 7 64 13 16 24 33 24 39 0 6 13 38 28 71 16 33 34 80 41 105 6 25 14
54 17 65 4 17 17 199 15 230 -4 108 -39 275 -69 333 -12 23 -20 42 -17 42 4 0
-10 29 -30 65 -19 36 -32 65 -28 65 4 0 -1 6 -10 13 -9 6 -17 19 -19 27 -2 8
-12 23 -23 33 -19 18 -19 19 4 85 33 95 90 215 144 302 l45 74 -31 46 c-18 25
-88 102 -157 171 -240 241 -534 396 -865 455 -125 22 -367 27 -485 9z m435
-919 c240 -82 414 -271 477 -520 40 -158 11 -377 -69 -516 -101 -176 -269
-302 -467 -352 -158 -40 -377 -11 -516 69 -165 95 -289 252 -347 439 -28 93
-26 306 5 399 70 208 189 347 377 441 121 60 191 75 340 70 98 -3 135 -8 200
-30z"/>
</g>
</svg>
