<svg width="238" height="36" viewBox="0 0 238 36" fill="none" xmlns="http://www.w3.org/2000/svg">
<rect opacity="0.8" x="0.5" y="0.5" width="209" height="35" rx="17.5" fill="white" stroke="#AEC3F1"/>
<g filter="url(#filter0_b_440_363)">
<path fill-rule="evenodd" clip-rule="evenodd" d="M22 12.6597C19.0506 12.6597 16.6597 15.0506 16.6597 18C16.6597 20.9494 19.0506 23.3403 22 23.3403C24.9494 23.3403 27.3403 20.9494 27.3403 18C27.3403 15.0506 24.9494 12.6597 22 12.6597ZM10 18C10 11.3726 15.3726 6 22 6C28.6274 6 34 11.3726 34 18C34 24.6274 28.6274 30 22 30C15.3726 30 10 24.6274 10 18Z" fill="url(#paint0_radial_440_363)"/>
</g>
<g filter="url(#filter1_b_440_363)">
<path fill-rule="evenodd" clip-rule="evenodd" d="M41.2012 12.6597C38.2518 12.6597 35.8609 15.0506 35.8609 18C35.8609 20.9494 38.2518 23.3403 41.2012 23.3403C44.1505 23.3403 46.5415 20.9494 46.5415 18C46.5415 15.0506 44.1505 12.6597 41.2012 12.6597ZM29.2012 18C29.2012 11.3726 34.5738 6 41.2012 6C47.8286 6 53.2012 11.3726 53.2012 18C53.2012 24.6274 47.8286 30 41.2012 30C34.5738 30 29.2012 24.6274 29.2012 18Z" fill="url(#paint1_linear_440_363)" fill-opacity="0.5"/>
</g>
<path d="M62.8603 25.0212V19.8215H67.3423L68.0719 17.6376H62.8603V16.8681C62.8603 14.7466 62.8812 13.9771 62.9229 13.2283H69.8438L69.0933 11.086H60.5255C60.3588 13.2075 60.2754 15.433 60.2754 17.3465V25.0212H62.8603Z" fill="black"/>
<path d="M70.7555 13.9979V25.0212H73.3613V13.9979H70.7555ZM73.403 12.7707V9.90051H70.6304V12.7707H73.403Z" fill="black"/>
<path d="M75.6887 14.4138C75.5011 16.2233 75.376 18.012 75.376 20.0919V25.0212H77.961V20.1127C77.961 18.4072 78.0027 17.1593 78.1277 16.1193C78.7323 15.9945 80.6918 15.9113 81.9426 15.9113L81.3172 13.7483C79.3577 13.7483 76.8144 13.9771 75.6887 14.4138Z" fill="black"/>
<path d="M91.783 20.5495C91.9706 19.9047 91.9915 19.3431 91.9915 18.8232C91.9915 15.4122 90.3029 13.7483 87.1343 13.7483C83.7572 13.7483 81.7768 15.433 81.7768 19.3847C81.7768 23.5653 84.0907 25.1668 87.8847 25.1668C88.8228 25.1668 89.6984 25.0836 90.699 24.8548L91.4078 22.6709C90.4488 22.9205 89.3857 23.0869 88.4684 23.0869C85.8627 23.0869 84.7787 22.1094 84.4451 20.5495H91.783ZM87.1343 15.7865C88.6978 15.7865 89.4274 16.7849 89.4274 18.428H84.3826C84.6327 16.5353 85.675 15.7865 87.1343 15.7865Z" fill="black"/>
<path d="M93.686 14.4138C93.5193 16.0361 93.3942 17.6376 93.3942 19.4887V28.245H95.9791V24.5428C96.8546 24.8132 97.7302 24.9796 98.7308 24.9796C102.066 24.9796 103.963 23.5861 103.963 19.4055C103.963 15.2874 102.108 13.7483 98.3764 13.7483C96.6253 13.7483 95.1244 13.9771 93.686 14.4138ZM98.2513 22.9621C97.4175 22.9621 96.667 22.7957 95.9791 22.6709V19.4887C95.9791 18.116 96.0416 16.8473 96.0625 16.0777C96.6045 15.8905 97.3758 15.7865 98.1888 15.7865C100.232 15.7865 101.253 16.7641 101.253 19.4263C101.253 21.9846 100.232 22.9621 98.2513 22.9621Z" fill="black"/>
<path d="M110.617 25.2292C114.557 25.2292 116.308 23.3781 116.308 19.5511C116.308 15.7242 114.557 13.7483 110.596 13.7483C106.615 13.7483 104.905 15.7657 104.905 19.5511C104.905 23.3365 106.615 25.2292 110.617 25.2292ZM110.617 15.8073C112.66 15.8073 113.598 16.9513 113.598 19.5511C113.598 22.1718 112.66 23.1493 110.617 23.1493C108.574 23.1493 107.615 22.151 107.615 19.5511C107.615 16.9513 108.574 15.8073 110.617 15.8073Z" fill="black"/>
<path d="M116.66 16.0361H118.64V19.8839C118.64 23.4821 120.391 25.2084 123.726 25.2084L124.727 23.1493C122.163 23.1493 121.225 22.1718 121.225 19.6967V16.0361H123.997L124.539 13.9979H121.225V10.8573L118.64 11.7724V13.9979H117.202L116.66 16.0361Z" fill="black"/>
<path d="M132.185 25.0212V19.8215H136.667L137.396 17.6376H132.185V16.8681C132.185 14.7466 132.205 13.9771 132.247 13.2283H139.168L138.418 11.086H129.85C129.683 13.2075 129.6 15.433 129.6 17.3465V25.0212H132.185Z" fill="black"/>
<path d="M140.08 13.9979V25.0212H142.686V13.9979H140.08ZM142.727 12.7707V9.90051H139.955V12.7707H142.727Z" fill="black"/>
<path d="M147.285 25.0212V20.1127C147.285 18.428 147.327 17.1593 147.389 16.1193C147.973 15.9529 148.807 15.8281 149.683 15.8281C151.663 15.8281 152.184 16.4313 152.184 18.1784V25.0212H154.79V18.0328C154.79 14.9754 153.456 13.7483 149.662 13.7483C147.994 13.7483 146.451 14.0187 145.013 14.4554C144.825 16.2649 144.7 18.012 144.7 20.1127V25.0212H147.285Z" fill="black"/>
<path d="M165.613 24.4596C165.759 22.4213 165.759 20.3415 165.759 18.324C165.759 15.0794 163.737 13.7483 160.339 13.7483C159.13 13.7483 158.213 13.8731 157.441 14.0395L156.941 16.1609C157.921 15.8905 158.859 15.8281 159.88 15.8281C161.882 15.8281 163.195 16.4313 163.195 18.1992V18.5944C162.298 18.4696 161.277 18.4072 160.485 18.4072C157.65 18.4072 155.94 19.2391 155.94 21.735C155.94 24.0436 157.462 25.1668 160.818 25.1668C162.778 25.1668 164.404 24.834 165.613 24.4596ZM160.923 23.1077C159.13 23.1077 158.546 22.6293 158.546 21.735C158.546 20.7158 159.192 20.3415 160.86 20.3415C161.756 20.3415 162.424 20.3831 163.174 20.5495V22.8789C162.278 23.0869 161.59 23.1077 160.923 23.1077Z" fill="black"/>
<path d="M170.128 25.0212V20.1127C170.128 18.428 170.17 17.1593 170.232 16.1193C170.816 15.9529 171.65 15.8281 172.525 15.8281C174.506 15.8281 175.027 16.4313 175.027 18.1784V25.0212H177.633V18.0328C177.633 14.9754 176.299 13.7483 172.505 13.7483C170.837 13.7483 169.294 14.0187 167.856 14.4554C167.668 16.2649 167.543 18.012 167.543 20.1127V25.0212H170.128Z" fill="black"/>
<path d="M184.537 25.2292C185.725 25.2292 186.642 25.0628 187.497 24.7924L188.06 22.5045C186.913 22.9205 186.079 23.1285 184.975 23.1285C182.786 23.1285 181.764 21.943 181.764 19.4679C181.764 16.9305 182.786 15.8489 184.975 15.8489C186.142 15.8489 186.788 15.9529 187.935 16.4729L187.372 14.1642C186.475 13.8939 185.725 13.7483 184.537 13.7483C181.097 13.7483 179.054 15.2874 179.054 19.4679C179.054 23.6069 181.097 25.2292 184.537 25.2292Z" fill="black"/>
<path d="M198.67 20.5495C198.857 19.9047 198.878 19.3431 198.878 18.8232C198.878 15.4122 197.189 13.7483 194.021 13.7483C190.644 13.7483 188.663 15.433 188.663 19.3847C188.663 23.5653 190.977 25.1668 194.771 25.1668C195.709 25.1668 196.585 25.0836 197.586 24.8548L198.294 22.6709C197.335 22.9205 196.272 23.0869 195.355 23.0869C192.749 23.0869 191.665 22.1094 191.332 20.5495H198.67ZM194.021 15.7865C195.584 15.7865 196.314 16.7849 196.314 18.428H191.269C191.519 16.5353 192.562 15.7865 194.021 15.7865Z" fill="black"/>
<path fill-rule="evenodd" clip-rule="evenodd" d="M215.105 32.9394C214.916 33.0544 214.671 33.0011 214.547 32.8181L214.072 32.1176C213.947 31.9347 213.989 31.687 214.163 31.5508C215.728 30.3262 217.015 28.946 218.026 27.4677C221.793 21.9633 221.793 15.0366 218.026 9.53221C217.015 8.05393 215.728 6.67371 214.163 5.44918C213.989 5.31299 213.947 5.06527 214.072 4.88237L214.547 4.1818C214.671 3.99889 214.916 3.94556 215.105 4.06059L236.211 16.9267C237.389 17.6448 237.389 19.3551 236.211 20.0732L215.105 32.9394ZM214.342 32.4456L214.346 32.4431C216.121 31.1088 217.573 29.5811 218.703 27.9303C222.66 22.1471 222.66 14.853 218.703 9.06979C217.573 7.4187 216.12 5.89076 214.345 4.55629L214.342 4.55438C215.49 5.41704 216.503 6.36058 217.381 7.36601C217.862 7.91641 218.302 8.48535 218.702 9.06973C222.66 14.8529 222.66 22.147 218.702 27.9302C218.302 28.5146 217.862 29.0835 217.381 29.6339C216.503 30.6394 215.49 31.5829 214.342 32.4456Z" fill="url(#paint2_linear_440_363)"/>
<defs>
<filter id="filter0_b_440_363" x="-6.76978" y="-10.7698" width="57.5396" height="57.5396" filterUnits="userSpaceOnUse" color-interpolation-filters="sRGB">
<feFlood flood-opacity="0" result="BackgroundImageFix"/>
<feGaussianBlur in="BackgroundImage" stdDeviation="8.38489"/>
<feComposite in2="SourceAlpha" operator="in" result="effect1_backgroundBlur_440_363"/>
<feBlend mode="normal" in="SourceGraphic" in2="effect1_backgroundBlur_440_363" result="shape"/>
</filter>
<filter id="filter1_b_440_363" x="21.2156" y="-1.98561" width="39.9712" height="39.9712" filterUnits="userSpaceOnUse" color-interpolation-filters="sRGB">
<feFlood flood-opacity="0" result="BackgroundImageFix"/>
<feGaussianBlur in="BackgroundImage" stdDeviation="3.99281"/>
<feComposite in2="SourceAlpha" operator="in" result="effect1_backgroundBlur_440_363"/>
<feBlend mode="normal" in="SourceGraphic" in2="effect1_backgroundBlur_440_363" result="shape"/>
</filter>
<radialGradient id="paint0_radial_440_363" cx="0" cy="0" r="1" gradientUnits="userSpaceOnUse" gradientTransform="translate(4.40837 6.37696) rotate(42.8481) scale(36.677)">
<stop stop-color="#290578"/>
<stop offset="1" stop-color="#05669D"/>
</radialGradient>
<linearGradient id="paint1_linear_440_363" x1="48.8661" y1="6.50262" x2="33.3478" y2="29.1832" gradientUnits="userSpaceOnUse">
<stop stop-color="#72EDFF"/>
<stop offset="1" stop-color="#0070FF"/>
</linearGradient>
<linearGradient id="paint2_linear_440_363" x1="239.79" y1="18.7568" x2="205.507" y2="18.7568" gradientUnits="userSpaceOnUse">
<stop stop-color="#3568DD"/>
<stop offset="1" stop-color="#3568DD" stop-opacity="0.6"/>
</linearGradient>
</defs>
</svg>
